<?xml version="1.0" encoding="UTF-8"?>
<svg width="194px" height="37px" viewBox="0 0 194 37" version="1.1" xmlns="http://www.w3.org/2000/svg" xmlns:xlink="http://www.w3.org/1999/xlink">
    <!-- Generator: Sketch 52.3 (67297) - http://www.bohemiancoding.com/sketch -->
    <title>MAN_WHITE_Logo</title>
    <desc>Created with Sketch.</desc>
    <g id="Symbols" stroke="none" stroke-width="1" fill="none" fill-rule="evenodd">
        <g id="MAN_WHITE_Logo" fill="#FFFFFF">
            <g id="logo-MAN_BLUE-footer-2">
                <g id="logo-MAN_BLUE-footer">
                    <g id="Group">
                        <path d="M57.737984,22.334873 C57.0224086,24.221709 54.9204061,25.187067 52.952574,24.4849885 C51.0294653,23.7829099 50.0455492,21.7205543 50.7164011,19.8775982 L57.2907494,2.41339492 C58.0063247,0.526558891 60.1083272,-0.438799076 62.0761594,0.263279446 C63.999268,0.965357968 64.9831841,3.02771363 64.3123322,4.87066975 L57.737984,22.334873 Z" id="Path"></path>
                        <path d="M7.24520016,33.6558891 C6.52962483,35.5427252 4.42762232,36.5080831 2.45979018,35.8060046 C0.536681493,35.1039261 -0.447234578,33.0415704 0.223617289,31.1986143 L7.73715819,11.2332564 C8.45273352,9.34642032 10.554736,8.38106236 12.5225682,9.08314088 C14.4456769,9.74133949 15.4295929,11.8475751 14.7587411,13.6905312 L7.24520016,33.6558891 Z" id="Path"></path>
                        <path d="M18.8285757,33.6558891 C18.1130004,35.5427252 16.0109979,36.5080831 14.0431657,35.8060046 C12.1200571,35.1039261 11.136141,33.0415704 11.8069928,31.1986143 L19.3205337,11.2332564 C20.0361091,9.34642032 22.1381116,8.38106236 24.1059437,9.08314088 C26.0290524,9.74133949 27.0129685,11.8475751 26.3421166,13.6905312 L18.8285757,33.6558891 Z" id="Path"></path>
                        <path d="M30.3672278,33.6558891 C29.6516525,35.5427252 27.54965,36.5080831 25.5818178,35.8060046 C23.6587092,35.1039261 22.6747931,33.0415704 23.3456449,31.1986143 L30.8591858,11.2332564 C31.5747612,9.34642032 33.6767637,8.38106236 35.6445958,9.08314088 C37.5677045,9.74133949 38.5516206,11.8475751 37.8807687,13.6905312 L30.3672278,33.6558891 Z" id="Path"></path>
                        <path d="M41.9058799,33.6558891 C41.1903046,35.5427252 39.0883021,36.5080831 37.1204699,35.8060046 C35.1973613,35.1039261 34.2134452,33.0415704 34.884297,31.1986143 L45.7073738,2.41339492 C46.4229491,0.526558891 48.5249517,-0.438799076 50.4927838,0.263279446 C52.4158925,0.965357968 53.3998086,3.02771363 52.7289567,4.87066975 L41.9058799,33.6558891 Z" id="Path"></path>
                    </g>
                    <path d="M190.834994,13.778291 L191.192782,13.778291 C191.505846,13.778291 191.81891,13.778291 191.81891,13.3833718 C191.81891,13.0762125 191.55057,13.0323326 191.326952,13.0323326 L190.834994,13.0323326 L190.834994,13.778291 Z M190.432483,12.7690531 L191.326952,12.7690531 C191.863634,12.7690531 192.131975,12.9884527 192.131975,13.4272517 C192.131975,13.8660508 191.863634,14.0415704 191.505846,14.0415704 L192.176698,15.0508083 L191.774187,15.0508083 L191.148058,14.0415704 L190.745547,14.0415704 L190.745547,15.0508083 L190.38776,15.0508083 L190.38776,12.7690531 L190.432483,12.7690531 Z M191.237505,15.6212471 C192.176698,15.6212471 192.892273,14.8752887 192.892273,13.9099307 C192.892273,12.9445727 192.176698,12.2424942 191.237505,12.2424942 C190.298313,12.2424942 189.582737,12.9884527 189.582737,13.9099307 C189.582737,14.8752887 190.298313,15.6212471 191.237505,15.6212471 Z M191.237505,11.9353349 C192.355592,11.9353349 193.250061,12.7690531 193.250061,13.9099307 C193.250061,15.0508083 192.310868,15.8845266 191.237505,15.8845266 C190.119419,15.8845266 189.22495,15.0508083 189.22495,13.9099307 C189.22495,12.7690531 190.119419,11.9353349 191.237505,11.9353349 Z" id="Shape" fill-rule="nonzero"></path>
                    <polygon id="Path" points="75.1801325 12.1547344 80.9047351 27.1177829 86.6740611 12.1547344 89.983597 12.1547344 89.983597 29.9699769 87.6579772 29.9699769 87.6579772 15.1385681 87.6132537 15.1385681 81.9333746 29.9699769 79.8760955 29.9699769 74.1962164 15.1385681 74.151493 15.1385681 74.151493 29.9699769 71.8705966 29.9699769 71.8705966 12.1547344"></polygon>
                    <path d="M101.298632,23.3002309 C101.030291,23.5196305 100.672503,23.6512702 100.225269,23.73903 C99.7780342,23.8267898 99.3307997,23.9145497 98.8388416,23.9584296 C98.3468836,24.0023095 97.8549256,24.0900693 97.3629675,24.1778291 C96.8710095,24.2655889 96.4237749,24.3533487 96.0212638,24.5288684 C95.6187527,24.704388 95.3056885,24.9237875 95.0820712,25.2309469 C94.8137304,25.5381062 94.7242835,25.9769053 94.7242835,26.5034642 C94.7242835,26.8545035 94.8137304,27.1616628 94.9479008,27.3810624 C95.0820712,27.6004619 95.260965,27.8198614 95.5293058,27.9515012 C95.752923,28.0831409 96.0212638,28.2147806 96.334328,28.2586605 C96.6473922,28.3464203 96.9604564,28.3464203 97.3182441,28.3464203 C98.0338194,28.3464203 98.6599478,28.2586605 99.1519058,28.039261 C99.6438639,27.8637413 100.091098,27.6004619 100.404163,27.3371824 C100.717227,27.0300231 100.985568,26.7228637 101.119738,26.3718245 C101.253908,26.0207852 101.343355,25.7136259 101.343355,25.4064665 L101.343355,23.3002309 L101.298632,23.3002309 Z M104.787062,29.926097 C104.429274,30.1454965 103.892592,30.2332564 103.22174,30.2332564 C102.640336,30.2332564 102.193101,30.0577367 101.880037,29.7505774 C101.566973,29.443418 101.388079,28.9168591 101.388079,28.2586605 C100.806674,28.960739 100.091098,29.443418 99.3307997,29.7505774 C98.5257774,30.0577367 97.6760317,30.2332564 96.7815626,30.2332564 C96.2001576,30.2332564 95.6187527,30.1454965 95.0820712,30.0138568 C94.5453897,29.8822171 94.0981551,29.6628176 93.695644,29.3995381 C93.2931329,29.1362587 92.9800687,28.7413395 92.7564514,28.3025404 C92.5328341,27.8637413 92.3986637,27.2933025 92.3986637,26.6351039 C92.3986637,25.8891455 92.5328341,25.3187067 92.8011748,24.8360277 C93.0695156,24.3533487 93.3825798,24.0023095 93.8298144,23.6951501 C94.2323255,23.3879908 94.7242835,23.1685912 95.260965,23.0369515 C95.7976465,22.9053118 96.334328,22.7736721 96.9157329,22.6420323 C97.4971379,22.5103926 98.0785428,22.4226328 98.6152243,22.3787529 C99.1519058,22.334873 99.6438639,22.2471132 100.046375,22.1154734 C100.448886,22.0277136 100.76195,21.852194 101.030291,21.6327945 C101.253908,21.4133949 101.388079,21.1062356 101.388079,20.7113164 C101.388079,20.2286374 101.298632,19.8775982 101.119738,19.5704388 C100.940844,19.3071594 100.717227,19.0877598 100.448886,18.9122402 C100.180545,18.7806005 99.8674812,18.6489607 99.5096935,18.6050808 C99.1519058,18.5612009 98.8388416,18.517321 98.481054,18.517321 C97.5418614,18.517321 96.7815626,18.6928406 96.2001576,19.0438799 C95.5740292,19.3949192 95.260965,20.0531178 95.2162416,20.9745958 L93.0695156,20.9745958 C93.114239,20.1847575 93.2931329,19.482679 93.5614736,18.9561201 C93.8745378,18.3856813 94.2770489,17.9468822 94.769007,17.6397229 C95.260965,17.2886836 95.84237,17.0692841 96.5132218,16.8937644 C97.1840737,16.7621247 97.8549256,16.6743649 98.6152243,16.6743649 C99.1966293,16.6743649 99.7780342,16.7182448 100.404163,16.8060046 C100.985568,16.8937644 101.522249,17.0692841 102.014207,17.3325635 C102.506165,17.595843 102.863953,17.9468822 103.177017,18.4295612 C103.445358,18.9122402 103.624252,19.482679 103.624252,20.2725173 L103.624252,26.8983834 C103.624252,27.3810624 103.668975,27.7759815 103.713699,27.9953811 C103.758422,28.2147806 103.982039,28.3464203 104.295103,28.3464203 C104.473997,28.3464203 104.697615,28.3025404 104.965955,28.2586605 L104.965955,29.926097 L104.787062,29.926097 Z" id="Shape" fill-rule="nonzero"></path>
                    <path d="M108.856896,17.0692841 L108.856896,19.1316397 L108.90162,19.1316397 C109.796089,17.551963 111.227239,16.7621247 113.195072,16.7621247 C114.044817,16.7621247 114.805116,16.8937644 115.341798,17.113164 C115.923202,17.3325635 116.370437,17.6836028 116.728225,18.0785219 C117.086012,18.517321 117.354353,19 117.488524,19.5704388 C117.622694,20.1408776 117.712141,20.7990762 117.712141,21.5011547 L117.712141,30.0138568 L115.565415,30.0138568 L115.565415,21.2817552 C115.565415,20.4919169 115.341798,19.8337182 114.84984,19.3949192 C114.357881,18.9122402 113.731753,18.6928406 112.882007,18.6928406 C112.211155,18.6928406 111.629751,18.7806005 111.182516,19 C110.690558,19.2193995 110.288047,19.482679 109.974983,19.8337182 C109.661918,20.1847575 109.393578,20.6235566 109.259407,21.1062356 C109.080513,21.5889145 109.03579,22.1154734 109.03579,22.7297921 L109.03579,30.0138568 L106.889064,30.0138568 L106.889064,17.0692841 L108.856896,17.0692841 Z" id="Path"></path>
                    <path d="M130.458326,21.6327945 C130.279432,21.0623557 130.055815,20.5357968 129.698027,20.0969977 C129.384963,19.6581986 128.937729,19.3071594 128.445771,19 C127.909089,18.7367206 127.327684,18.6050808 126.612109,18.6050808 C125.896534,18.6050808 125.270405,18.7367206 124.733724,19.0438799 C124.241766,19.3071594 123.794531,19.7020785 123.481467,20.1408776 C123.168403,20.5796767 122.944785,21.1062356 122.765892,21.7205543 C122.631721,22.2909931 122.542274,22.9053118 122.542274,23.4757506 C122.542274,24.0900693 122.631721,24.704388 122.765892,25.3187067 C122.900062,25.8891455 123.168403,26.4157044 123.481467,26.8983834 C123.794531,27.3371824 124.241766,27.7321016 124.778447,27.9953811 C125.315129,28.2586605 125.941257,28.3903002 126.701556,28.3903002 C127.461855,28.3903002 128.087983,28.2586605 128.579941,27.9515012 C129.071899,27.6882217 129.47441,27.2933025 129.787474,26.8106236 C130.100539,26.3279446 130.324156,25.8013857 130.458326,25.2309469 C130.592497,24.6166282 130.681944,24.0023095 130.681944,23.3879908 C130.726667,22.817552 130.63722,22.2032333 130.458326,21.6327945 Z M122.676445,17.0692841 L122.676445,18.8244804 L122.721168,18.8244804 C123.078956,18.1224018 123.660361,17.595843 124.420659,17.2448037 C125.180958,16.9376443 126.030704,16.7621247 126.925173,16.7621247 C127.953813,16.7621247 128.848282,16.9376443 129.608581,17.3325635 C130.368879,17.6836028 130.995008,18.2101617 131.486966,18.8244804 C131.978924,19.4387991 132.381435,20.1847575 132.605052,20.9745958 C132.873393,21.8083141 133.007563,22.6420323 133.007563,23.5635104 C133.007563,24.4849885 132.873393,25.3625866 132.649776,26.1524249 C132.381435,26.9861432 132.023647,27.6882217 131.531689,28.3025404 C131.039731,28.9168591 130.413603,29.3995381 129.653304,29.7505774 C128.893005,30.1016166 127.998536,30.2771363 127.01462,30.2771363 C126.701556,30.2771363 126.343768,30.2332564 125.941257,30.1893764 C125.538746,30.1016166 125.136235,30.0138568 124.733724,29.8822171 C124.331213,29.7505774 123.973425,29.5311778 123.615637,29.2678984 C123.25785,29.0046189 122.989509,28.6974596 122.721168,28.3025404 L122.676445,28.3025404 L122.676445,34.9722864 L120.529719,34.9722864 L120.529719,17.113164 L122.676445,17.113164 L122.676445,17.0692841 Z" id="Shape" fill-rule="nonzero"></path>
                    <path d="M137.077398,25.6258661 C137.301015,26.2401848 137.569356,26.7228637 137.971867,27.1616628 C138.329655,27.556582 138.776889,27.8637413 139.268847,28.0831409 C139.760805,28.3025404 140.297487,28.3903002 140.878892,28.3903002 C141.460297,28.3903002 141.952255,28.3025404 142.488936,28.0831409 C142.980894,27.8637413 143.428129,27.556582 143.785917,27.1616628 C144.143704,26.7667436 144.456769,26.2401848 144.680386,25.6258661 C144.904003,25.0115473 144.99345,24.3094688 144.99345,23.5196305 C144.99345,22.7297921 144.904003,22.0277136 144.680386,21.4133949 C144.456769,20.7990762 144.188428,20.2725173 143.785917,19.8775982 C143.428129,19.482679 142.980894,19.1316397 142.488936,18.9122402 C141.996978,18.6928406 141.460297,18.6050808 140.878892,18.6050808 C140.297487,18.6050808 139.805529,18.6928406 139.268847,18.9122402 C138.776889,19.1316397 138.329655,19.4387991 137.971867,19.8775982 C137.61408,20.3163972 137.301015,20.7990762 137.077398,21.4133949 C136.853781,22.0277136 136.764334,22.7297921 136.764334,23.5196305 C136.764334,24.3094688 136.898504,25.0115473 137.077398,25.6258661 Z M134.885949,20.886836 C135.154289,20.0531178 135.5568,19.3510393 136.093482,18.7367206 C136.630163,18.1224018 137.301015,17.6397229 138.106038,17.2886836 C138.91106,16.9376443 139.805529,16.7621247 140.878892,16.7621247 C141.952255,16.7621247 142.846724,16.9376443 143.651746,17.2886836 C144.456769,17.6397229 145.12762,18.1224018 145.664302,18.7367206 C146.200983,19.3510393 146.603495,20.0531178 146.871835,20.886836 C147.140176,21.7205543 147.274346,22.5981524 147.274346,23.5635104 C147.274346,24.5288684 147.140176,25.4064665 146.871835,26.1963048 C146.603495,27.0300231 146.200983,27.7321016 145.664302,28.3464203 C145.12762,28.960739 144.456769,29.443418 143.651746,29.7505774 C142.846724,30.1016166 141.952255,30.2771363 140.878892,30.2771363 C139.850252,30.2771363 138.91106,30.1016166 138.106038,29.7505774 C137.301015,29.3995381 136.630163,28.9168591 136.093482,28.3464203 C135.5568,27.7321016 135.154289,27.0300231 134.885949,26.1963048 C134.617608,25.3625866 134.483437,24.4849885 134.483437,23.5635104 C134.483437,22.5981524 134.617608,21.7205543 134.885949,20.886836 Z" id="Shape" fill-rule="nonzero"></path>
                    <polygon id="Path" points="159.931085 29.9699769 157.247677 19.7020785 157.202954 19.7020785 154.56427 29.9699769 152.23865 29.9699769 147.989922 17.0692841 150.404988 17.0692841 153.356737 27.6443418 153.40146 27.6443418 156.084868 17.0692841 158.455211 17.0692841 161.183342 27.6443418 161.228065 27.6443418 164.179813 17.0692841 166.46071 17.0692841 162.256705 29.9699769"></polygon>
                    <path d="M176.389317,20.8429561 C176.210424,20.404157 175.942083,20.0092379 175.584295,19.6581986 C175.271231,19.3510393 174.86872,19.0877598 174.421485,18.8683603 C173.974251,18.6928406 173.482293,18.5612009 172.945611,18.5612009 C172.364206,18.5612009 171.872248,18.6489607 171.425014,18.8683603 C170.977779,19.0438799 170.575268,19.3071594 170.262204,19.6581986 C169.949139,20.0092379 169.680799,20.3602771 169.501905,20.8429561 C169.323011,21.2817552 169.188841,21.7644342 169.188841,22.2471132 L176.747105,22.2471132 C176.702382,21.8083141 176.568211,21.3256351 176.389317,20.8429561 Z M176.881275,29.1801386 C175.897359,29.926097 174.645103,30.2771363 173.169228,30.2771363 C172.095865,30.2771363 171.201396,30.1016166 170.441097,29.7944573 C169.680799,29.443418 169.009947,29.0046189 168.473265,28.3903002 C167.936584,27.7759815 167.534073,27.073903 167.310455,26.2401848 C167.042115,25.4064665 166.907944,24.4849885 166.863221,23.5196305 C166.863221,22.5542725 166.997391,21.6327945 167.310455,20.7990762 C167.62352,19.965358 168.026031,19.2632794 168.607436,18.6928406 C169.144117,18.0785219 169.814969,17.6397229 170.575268,17.2886836 C171.335567,16.9376443 172.140589,16.8060046 173.079781,16.8060046 C174.242591,16.8060046 175.226507,17.0254042 175.986806,17.5080831 C176.747105,17.9907621 177.373233,18.6050808 177.865191,19.3071594 C178.312426,20.0531178 178.670214,20.8429561 178.849108,21.7205543 C179.028001,22.5981524 179.117448,23.4318707 179.072725,24.1778291 L169.188841,24.1778291 C169.188841,24.7482679 169.233564,25.2748268 169.412458,25.8013857 C169.546628,26.3279446 169.814969,26.7667436 170.172757,27.1616628 C170.530544,27.556582 170.933056,27.8637413 171.469737,28.0831409 C172.006419,28.3025404 172.632547,28.4341801 173.348122,28.4341801 C174.287315,28.4341801 175.00289,28.2147806 175.584295,27.8198614 C176.1657,27.4249423 176.568211,26.7667436 176.747105,25.9330254 L178.893831,25.9330254 C178.536043,27.3371824 177.865191,28.4341801 176.881275,29.1801386 Z" id="Shape" fill-rule="nonzero"></path>
                    <path d="M183.27673,17.0692841 L183.27673,19.7898383 L183.321453,19.7898383 C183.858135,18.7367206 184.484263,17.9468822 185.244562,17.4642032 C186.004861,16.9815242 186.988777,16.7182448 188.151587,16.7621247 L188.151587,19 C187.301841,19 186.541542,19.1316397 185.915414,19.3510393 C185.289285,19.5704388 184.797327,19.9214781 184.43954,20.3602771 C184.081752,20.7990762 183.813411,21.369515 183.634518,21.9838337 C183.455624,22.6420323 183.366177,23.3441109 183.366177,24.1778291 L183.366177,29.926097 L181.219451,29.926097 L181.219451,16.9815242 L183.27673,16.9815242 L183.27673,17.0692841 Z" id="Path"></path>
                </g>
            </g>
        </g>
    </g>
</svg>